<svg width="71" height="72" viewBox="0 0 71 72" fill="none" xmlns="http://www.w3.org/2000/svg">
<g filter="url(#filter0_d_157_1174)">
<circle cx="36" cy="36" r="20" fill="#D2334D"/>
</g>
<g clip-path="url(#clip0_157_1174)">
<path d="M33.1198 42.912C33.1198 43.8648 33.8949 44.64 34.8477 44.64C35.8006 44.64 36.5757 43.8648 36.5757 42.912C36.5757 41.9592 35.8006 41.184 34.8477 41.184C33.8949 41.184 33.1198 41.9592 33.1198 42.912ZM34.8477 42.336C35.1653 42.336 35.4237 42.5944 35.4237 42.912C35.4237 43.2296 35.1653 43.488 34.8477 43.488C34.5301 43.488 34.2717 43.2296 34.2717 42.912C34.2717 42.5944 34.5301 42.336 34.8477 42.336Z" fill="#FFEDF0"/>
<path d="M38.9181 42.912C38.9181 43.8648 39.6933 44.64 40.6461 44.64C41.5989 44.64 42.3741 43.8648 42.3741 42.912C42.3741 41.9592 41.5989 41.184 40.6461 41.184C39.6933 41.184 38.9181 41.9592 38.9181 42.912ZM40.6461 42.336C40.9637 42.336 41.2221 42.5944 41.2221 42.912C41.2221 43.2296 40.9637 43.488 40.6461 43.488C40.3285 43.488 40.0701 43.2296 40.0701 42.912C40.0701 42.5944 40.3285 42.336 40.6461 42.336Z" fill="#FFEDF0"/>
<path d="M45.2541 29.6641H30.6744C30.4772 28.9737 30.2934 28.3304 30.1355 27.7779C30.0649 27.5306 29.8388 27.3601 29.5817 27.3601H26.7454C26.4273 27.3601 26.1694 27.618 26.1694 27.9361C26.1694 28.2542 26.4273 28.5121 26.7454 28.5121H29.1472C29.7913 30.7668 31.2971 36.0372 31.9284 38.2468L31.7102 38.6832C31.1351 39.8334 31.9726 41.184 33.2558 41.184H42.9502C43.2683 41.184 43.5262 40.9261 43.5262 40.608C43.5262 40.2899 43.2683 40.032 42.9502 40.032H33.2558C32.8274 40.032 32.5492 39.5813 32.7406 39.1984L32.8998 38.88H42.9502C43.2073 38.88 43.4333 38.7096 43.504 38.4623L45.808 30.3983C45.9129 30.031 45.637 29.6641 45.2541 29.6641ZM42.5157 37.728H32.9783C32.6645 36.6295 31.7861 33.5553 31.0035 30.8161H44.4906L42.5157 37.728Z" fill="#FFEDF0"/>
</g>
<defs>
<filter id="filter0_d_157_1174" x="0" y="0" width="72" height="72" filterUnits="userSpaceOnUse" color-interpolation-filters="sRGB">
<feFlood flood-opacity="0" result="BackgroundImageFix"/>
<feColorMatrix in="SourceAlpha" type="matrix" values="0 0 0 0 0 0 0 0 0 0 0 0 0 0 0 0 0 0 127 0" result="hardAlpha"/>
<feOffset/>
<feGaussianBlur stdDeviation="8"/>
<feComposite in2="hardAlpha" operator="out"/>
<feColorMatrix type="matrix" values="0 0 0 0 0.823529 0 0 0 0 0.2 0 0 0 0 0.301961 0 0 0 1 0"/>
<feBlend mode="normal" in2="BackgroundImageFix" result="effect1_dropShadow_157_1174"/>
<feBlend mode="normal" in="SourceGraphic" in2="effect1_dropShadow_157_1174" result="shape"/>
</filter>
<clipPath id="clip0_157_1174">
<rect width="19.661" height="19.661" fill="white" transform="translate(26.1694 26.1695)"/>
</clipPath>
</defs>
</svg>
