<svg width="290" height="58" viewBox="0 0 290 58" fill="none" xmlns="http://www.w3.org/2000/svg">
<path fill-rule="evenodd" clip-rule="evenodd" d="M55.9993 50C59.8802 43.9382 62.1302 36.7319 62.1302 29C62.1302 21.689 60.1185 14.8479 56.6184 9L290 9V50H55.9993Z" fill="#D2334D"/>
<path d="M81.136 35L81.122 29.134L78.238 33.964H77.23L74.346 29.246V35H72.218V25.2H74.094L77.762 31.29L81.374 25.2H83.25L83.264 35H81.136ZM92.3345 32.9H87.7845L86.9165 35H84.5925L88.9605 25.2H91.2005L95.5825 35H93.2025L92.3345 32.9ZM91.6205 31.178L90.0665 27.426L88.5125 31.178H91.6205ZM100.676 31.052H99.1081V35H96.8541V25.2H99.1081V29.162H100.732L103.308 25.2H105.702L102.496 29.932L105.8 35H103.224L100.676 31.052ZM111.456 35.168C110.457 35.168 109.552 34.9533 108.74 34.524C107.937 34.0853 107.302 33.4833 106.836 32.718C106.378 31.9433 106.15 31.0707 106.15 30.1C106.15 29.1293 106.378 28.2613 106.836 27.496C107.302 26.7213 107.937 26.1193 108.74 25.69C109.552 25.2513 110.462 25.032 111.47 25.032C112.319 25.032 113.084 25.1813 113.766 25.48C114.456 25.7787 115.035 26.208 115.502 26.768L114.046 28.112C113.383 27.3467 112.562 26.964 111.582 26.964C110.975 26.964 110.434 27.0993 109.958 27.37C109.482 27.6313 109.108 28 108.838 28.476C108.576 28.952 108.446 29.4933 108.446 30.1C108.446 30.7067 108.576 31.248 108.838 31.724C109.108 32.2 109.482 32.5733 109.958 32.844C110.434 33.1053 110.975 33.236 111.582 33.236C112.562 33.236 113.383 32.8487 114.046 32.074L115.502 33.418C115.035 33.9873 114.456 34.4213 113.766 34.72C113.075 35.0187 112.305 35.168 111.456 35.168ZM116.98 25.2H119.234V31.584L123.91 25.2H126.038V35H123.798V28.63L119.122 35H116.98V25.2ZM137.396 35L137.382 29.134L134.498 33.964H133.49L130.606 29.246V35H128.478V25.2H130.354L134.022 31.29L137.634 25.2H139.51L139.524 35H137.396ZM148.594 32.9H144.044L143.176 35H140.852L145.22 25.2H147.46L151.842 35H149.462L148.594 32.9ZM147.88 31.178L146.326 27.426L144.772 31.178H147.88ZM161.96 25.2V35H159.72V27.048H156.36L156.29 29.092C156.243 30.4827 156.131 31.612 155.954 32.48C155.777 33.3387 155.478 34.0013 155.058 34.468C154.647 34.9253 154.069 35.154 153.322 35.154C153.014 35.154 152.641 35.1027 152.202 35L152.342 33.082C152.463 33.1193 152.599 33.138 152.748 33.138C153.289 33.138 153.667 32.8207 153.882 32.186C154.097 31.542 154.232 30.5387 154.288 29.176L154.428 25.2H161.96ZM169.153 28.42C170.348 28.42 171.263 28.686 171.897 29.218C172.541 29.75 172.863 30.5387 172.863 31.584C172.863 32.6947 172.509 33.544 171.799 34.132C171.099 34.7107 170.11 35 168.831 35H164.407V25.2H166.661V28.42H169.153ZM168.705 33.32C169.293 33.32 169.751 33.1753 170.077 32.886C170.413 32.5967 170.581 32.1767 170.581 31.626C170.581 30.6087 169.956 30.1 168.705 30.1H166.661V33.32H168.705ZM183.485 25.2V35H181.217V30.982H176.765V35H174.497V25.2H176.765V29.064H181.217V25.2H183.485ZM192.577 32.9H188.027L187.159 35H184.835L189.203 25.2H191.443L195.825 35H193.445L192.577 32.9ZM191.863 31.178L190.309 27.426L188.755 31.178H191.863ZM204.444 25.2V35H202.204V32.396H200.132L198.396 35H196.002L198.046 32.046C197.384 31.7753 196.875 31.3693 196.52 30.828C196.166 30.2773 195.988 29.6193 195.988 28.854C195.988 28.098 196.161 27.4493 196.506 26.908C196.852 26.3573 197.342 25.9373 197.976 25.648C198.611 25.3493 199.358 25.2 200.216 25.2H204.444ZM200.272 27.048C199.628 27.048 199.134 27.1973 198.788 27.496C198.452 27.7947 198.284 28.238 198.284 28.826C198.284 29.3953 198.448 29.834 198.774 30.142C199.101 30.45 199.582 30.604 200.216 30.604H202.204V27.048H200.272ZM215.498 35.168C214.5 35.168 213.594 34.9533 212.782 34.524C211.98 34.0853 211.345 33.4833 210.878 32.718C210.421 31.9433 210.192 31.0707 210.192 30.1C210.192 29.1293 210.421 28.2613 210.878 27.496C211.345 26.7213 211.98 26.1193 212.782 25.69C213.594 25.2513 214.504 25.032 215.512 25.032C216.362 25.032 217.127 25.1813 217.808 25.48C218.499 25.7787 219.078 26.208 219.544 26.768L218.088 28.112C217.426 27.3467 216.604 26.964 215.624 26.964C215.018 26.964 214.476 27.0993 214 27.37C213.524 27.6313 213.151 28 212.88 28.476C212.619 28.952 212.488 29.4933 212.488 30.1C212.488 30.7067 212.619 31.248 212.88 31.724C213.151 32.2 213.524 32.5733 214 32.844C214.476 33.1053 215.018 33.236 215.624 33.236C216.604 33.236 217.426 32.8487 218.088 32.074L219.544 33.418C219.078 33.9873 218.499 34.4213 217.808 34.72C217.118 35.0187 216.348 35.168 215.498 35.168ZM224.817 31.052H223.249V35H220.995V25.2H223.249V29.162H224.873L227.449 25.2H229.843L226.637 29.932L229.941 35H227.365L224.817 31.052ZM231.003 25.2H233.257V31.584L237.933 25.2H240.061V35H237.821V28.63L233.145 35H231.003V25.2ZM252.541 33.152V37.03H250.441V35H243.525V37.03H241.425L241.439 33.152H241.831C242.419 33.1333 242.834 32.704 243.077 31.864C243.32 31.024 243.469 29.8247 243.525 28.266L243.637 25.2H251.169V33.152H252.541ZM245.527 28.476C245.48 29.6427 245.382 30.6227 245.233 31.416C245.084 32.2 244.855 32.7787 244.547 33.152H248.929V27.048H245.569L245.527 28.476ZM257.862 31.052H256.294V35H254.04V25.2H256.294V29.162H257.918L260.494 25.2H262.888L259.682 29.932L262.986 35H260.41L257.862 31.052ZM270.493 32.9H265.943L265.075 35H262.751L267.119 25.2H269.359L273.741 35H271.361L270.493 32.9ZM269.779 31.178L268.225 27.426L266.671 31.178H269.779Z" fill="white"/>
<path d="M37.3719 34.012C35.5155 34.012 34.0048 35.5223 34.0048 37.3787C34.0048 39.2356 35.5155 40.7464 37.3719 40.7464C39.2288 40.7464 40.7387 39.2356 40.7387 37.3787C40.7382 35.5223 39.2284 34.012 37.3719 34.012Z" fill="#D2334D"/>
<path d="M20.5909 17.2319C18.734 17.2319 17.2233 18.7426 17.2233 20.5995C17.2237 22.4555 18.7344 23.9658 20.5909 23.9658C22.4473 23.9658 23.9572 22.4555 23.9572 20.5995C23.9572 18.7426 22.4473 17.2319 20.5909 17.2319Z" fill="#D2334D"/>
<path d="M29.0012 0C13.01 0 0.0012207 13.0088 0.0012207 29C0.0012207 44.9903 13.01 58 29.0012 58C44.9907 58 57.9985 44.9903 57.9985 29C57.9985 13.0088 44.9907 0 29.0012 0ZM20.5908 13.6042C24.4469 13.6042 27.5852 16.7416 27.5852 20.5995C27.5852 24.4556 24.4469 27.594 20.5908 27.594C16.7333 27.594 13.5954 24.4556 13.5954 20.5995C13.5954 16.7416 16.7338 13.6042 20.5908 13.6042ZM18.4643 42.1007C18.1108 42.4551 17.6455 42.6327 17.1819 42.6327C16.7179 42.6327 16.2535 42.4551 15.8991 42.1007C15.1909 41.3925 15.1909 40.2434 15.8991 39.5361L39.5355 15.8988C40.2433 15.1906 41.3919 15.1906 42.1006 15.8988C42.8089 16.607 42.8089 17.7562 42.1006 18.4639L18.4643 42.1007ZM37.3718 44.3736C33.5148 44.3736 30.3765 41.2357 30.3765 37.3783C30.3765 33.5222 33.5148 30.3838 37.3718 30.3838C41.2284 30.3838 44.3662 33.5222 44.3662 37.3783C44.3658 41.2357 41.2279 44.3736 37.3718 44.3736Z" fill="#D2334D"/>
</svg>
