<svg width="50" height="50" viewBox="0 0 50 50" fill="none" xmlns="http://www.w3.org/2000/svg">
<path d="M49.3067 5.97499H48.6402V0.749315C48.6402 0.366503 48.3299 0.0561523 47.9471 0.0561523H42.828C42.4452 0.0561523 42.1349 0.366503 42.1349 0.749315V5.97499H41.173C40.9527 5.54413 40.6339 5.15556 40.2211 4.84628C39.6481 4.41747 38.9683 4.19081 38.2551 4.19081C37.2269 4.19081 36.2455 4.68066 35.6286 5.50126L35.2618 5.97499H28.2196C27.2227 5.51317 26.1257 5.26102 25 5.26102C23.8744 5.26102 22.7774 5.51327 21.7805 5.97499H14.9667L14.6 5.50136C13.983 4.68065 13.0015 4.19081 11.9734 4.19081C11.2602 4.19081 10.5805 4.41747 10.0071 4.84647C9.60115 5.15067 9.2783 5.53622 9.05369 5.97499H7.86512V0.749315C7.86512 0.366503 7.55477 0.0561523 7.17196 0.0561523H2.05293C1.67002 0.0561523 1.35976 0.366503 1.35976 0.749315V5.97499H0.693163C0.310351 5.97499 0 6.28534 0 6.66815C0 7.05096 0.310351 7.36131 0.693163 7.36131H1.35967V12.587C1.35967 12.9698 1.67002 13.2801 2.05283 13.2801H7.17186C7.55467 13.2801 7.86502 12.9698 7.86502 12.587V7.36141H8.69442C8.66756 8.10194 8.88953 8.82381 9.33641 9.42703L17.1434 21.0179C17.4456 21.4665 17.6053 21.9895 17.6053 22.5304L17.6104 46.5985C17.6104 48.3808 19.0299 49.8805 20.7741 49.9415C21.6755 49.9742 22.5255 49.6484 23.1723 49.0246C23.82 48.4 24.1766 47.5605 24.1766 46.6605V35.6608C24.1766 35.1443 24.5597 34.7134 25.0489 34.6799C25.3254 34.661 25.5856 34.758 25.781 34.9533C25.9587 35.1311 26.0568 35.3669 26.0568 35.6171V46.603C26.0568 48.4147 27.5038 49.9132 29.2825 49.9435C29.3018 49.9437 29.3209 49.9439 29.3403 49.9439C30.2167 49.9439 31.0389 49.6041 31.6622 48.9821C32.2819 48.3611 32.623 47.5366 32.623 46.6604V22.5302C32.623 21.9893 32.7827 21.4664 33.0848 21.0177L40.8918 9.42684C41.3503 8.8077 41.5572 8.07821 41.5319 7.36122H42.1348V12.5869C42.1348 12.9697 42.4451 13.2801 42.8279 13.2801H47.947C48.3298 13.2801 48.6401 12.9697 48.6401 12.5869V7.36131H49.3066C49.6895 7.36131 49.9998 7.05096 49.9998 6.66815C49.9998 6.28534 49.6896 5.97499 49.3067 5.97499ZM6.4787 11.8938H5.30565V6.66815C5.30565 6.28534 4.9953 5.97499 4.61249 5.97499C4.22968 5.97499 3.91933 6.28534 3.91933 6.66815V11.8938H2.74609V1.44258H3.91923V4.00204C3.91923 4.38485 4.22958 4.69521 4.61239 4.69521C4.9952 4.69521 5.30565 4.38485 5.30565 4.00204V1.44258H6.4788V11.8938H6.4787ZM34.1885 7.36141L32.9166 9.00438C32.582 8.79608 32.1886 8.67371 31.7661 8.67371H31.3873C31.064 8.19188 30.6893 7.75272 30.2729 7.36141H34.1885ZM30.1727 13.0462H31.296C31.242 16.4729 28.4395 19.2444 25 19.2444C21.5606 19.2444 18.7581 16.473 18.7041 13.0462H27.8797C28.2625 13.0462 28.5729 12.7358 28.5729 12.353C28.5729 11.9702 28.2625 11.6598 27.8797 11.6598H18.2338C17.7926 11.6598 17.434 11.301 17.434 10.86C17.434 10.419 17.7927 10.0602 18.2338 10.0602H31.7661C32.2072 10.0602 32.566 10.4191 32.566 10.86C32.566 11.3011 32.2072 11.6598 31.7661 11.6598H30.1727C29.7899 11.6598 29.4795 11.9702 29.4795 12.353C29.4795 12.7358 29.7898 13.0462 30.1727 13.0462ZM24.9999 6.64735C26.7642 6.64735 28.4433 7.40155 29.6245 8.67362H20.3753C21.5565 7.40155 23.2358 6.64735 24.9999 6.64735ZM19.727 7.36141C19.3107 7.75272 18.9359 8.19198 18.6126 8.67371H18.2338C17.8765 8.67371 17.54 8.7616 17.2419 8.91424L16.0398 7.36151H19.727V7.36141ZM10.4773 8.63885C10.4708 8.62918 10.4641 8.61961 10.457 8.61033C10.1535 8.20516 10.026 7.70594 10.0979 7.20448C10.17 6.70301 10.4329 6.25956 10.838 5.95604C11.1694 5.70809 11.562 5.57704 11.9733 5.57704C12.5779 5.57704 13.1321 5.85399 13.4937 6.337C13.496 6.34003 13.4982 6.34286 13.5005 6.34589L16.2645 9.91639C16.1268 10.2025 16.0475 10.5217 16.0475 10.8597C16.0475 11.7378 16.5689 12.4945 17.3173 12.842C17.317 12.8767 17.3151 12.9107 17.3151 12.9458C17.3151 13.6724 17.4186 14.375 17.608 15.0417L15.924 16.7257L10.4773 8.63885ZM31.2367 46.6603C31.2367 47.1668 31.0393 47.6437 30.682 48.0018C30.3142 48.3688 29.8273 48.5663 29.306 48.5573C28.2789 48.5398 27.4432 47.6632 27.4432 46.603V38.5019H31.2366V46.6603H31.2367ZM31.935 20.2434C31.4782 20.9216 31.2367 21.7125 31.2367 22.5303V30.5035H30.1194C29.7366 30.5035 29.4262 30.8138 29.4262 31.1966C29.4262 31.5794 29.7366 31.8898 30.1194 31.8898H31.2367V37.1155H27.4433V35.6171C27.4433 34.9966 27.2011 34.4127 26.7614 33.973C26.2855 33.4971 25.628 33.251 24.9542 33.2967C23.7409 33.3799 22.7903 34.4182 22.7903 35.6608V37.1156H20.4145C20.0317 37.1156 19.7213 37.4259 19.7213 37.8087C19.7213 38.1915 20.0317 38.5019 20.4145 38.5019H22.7903V46.6603C22.7903 47.1804 22.5841 47.6656 22.21 48.0265C21.8366 48.3866 21.3432 48.5745 20.8235 48.5558C19.8164 48.5206 18.9969 47.6425 18.9969 46.5983L18.9919 31.8898H27.3466C27.7294 31.8898 28.0398 31.5794 28.0398 31.1966C28.0398 30.8138 27.7294 30.5035 27.3466 30.5035H18.9919V22.5303C18.9919 21.7126 18.7505 20.9218 18.2935 20.2434L16.7133 17.8973L18.163 16.4477C19.4388 18.9288 22.0237 20.6308 25.0001 20.6308C28.0655 20.6308 30.7163 18.8262 31.949 16.2242L33.5583 17.8336L31.935 20.2434ZM39.7713 8.61043C39.7644 8.61971 39.7576 8.62918 39.7512 8.63875L34.3472 16.6619L32.4625 14.7772C32.6067 14.1899 32.6848 13.5769 32.6848 12.9457C32.6848 12.9107 32.6829 12.8766 32.6826 12.8419C33.431 12.4944 33.9523 11.7377 33.9523 10.8596C33.9523 10.595 33.9026 10.3421 33.8159 10.107L36.7277 6.34559C36.7299 6.34276 36.7322 6.33973 36.7344 6.33671C37.096 5.8537 37.6502 5.57675 38.2548 5.57675C38.6661 5.57675 39.0588 5.7078 39.3899 5.95555C40.227 6.58319 40.3981 7.77401 39.7713 8.61043ZM47.2538 11.8938H46.0807V6.66815C46.0807 6.28534 45.7703 5.97499 45.3875 5.97499C45.0047 5.97499 44.6943 6.28534 44.6943 6.66815V11.8938H43.5212V1.44258H44.6943V4.00204C44.6943 4.38485 45.0047 4.69521 45.3875 4.69521C45.7703 4.69521 46.0807 4.38485 46.0807 4.00204V1.44258H47.2538V11.8938Z" fill="black"/>
</svg>
