<svg width="15" height="15" viewBox="0 0 15 15" fill="none" xmlns="http://www.w3.org/2000/svg">
<path d="M11.9436 8.74936C11.6598 8.45523 11.3176 8.29797 10.9548 8.29797C10.595 8.29797 10.2499 8.45231 9.95442 8.74644L9.03006 9.66378C8.954 9.62301 8.87794 9.58515 8.80481 9.5473C8.69951 9.49488 8.60005 9.44537 8.51522 9.39295C7.64935 8.84546 6.86247 8.13197 6.10776 7.20881C5.74211 6.74868 5.49639 6.36136 5.31796 5.96822C5.55782 5.7498 5.78014 5.52265 5.99661 5.30424C6.07851 5.2227 6.16042 5.13825 6.24232 5.0567C6.85662 4.44515 6.85662 3.65303 6.24232 3.04147L5.44374 2.24645C5.35306 2.15617 5.25945 2.06298 5.17169 1.96979C4.99618 1.78923 4.81189 1.60285 4.62175 1.42812C4.33801 1.14855 3.99868 1.00003 3.64181 1.00003C3.28493 1.00003 2.93975 1.14855 2.64723 1.42812C2.64431 1.43103 2.64431 1.43103 2.64138 1.43395L1.64681 2.43283C1.27238 2.80559 1.05884 3.25989 1.01204 3.78699C0.941832 4.63735 1.1934 5.42946 1.38646 5.94783C1.86035 7.22046 2.56825 8.39989 3.62426 9.66378C4.9055 11.1869 6.44709 12.3896 8.20807 13.237C8.88087 13.5545 9.77891 13.9301 10.7823 13.9942C10.8437 13.9971 10.908 14 10.9665 14C11.6423 14 12.2098 13.7583 12.6544 13.2778C12.6573 13.272 12.6632 13.2691 12.6661 13.2632C12.8182 13.0798 12.9937 12.9138 13.178 12.7361C13.3038 12.6167 13.4325 12.4915 13.5583 12.3605C13.8479 12.0605 14 11.7111 14 11.3529C14 10.9917 13.845 10.6452 13.5495 10.354L11.9436 8.74936ZM12.9908 11.8159C12.9879 11.8159 12.9879 11.8188 12.9908 11.8159C12.8767 11.9382 12.7597 12.0489 12.6339 12.1712C12.4438 12.3517 12.2507 12.541 12.0694 12.7536C11.7739 13.0681 11.4258 13.2167 10.9695 13.2167C10.9256 13.2167 10.8788 13.2166 10.8349 13.2137C9.96612 13.1584 9.15876 12.8206 8.55324 12.5323C6.89757 11.7343 5.44374 10.6015 4.23563 9.1658C3.23813 7.96889 2.57118 6.86226 2.12947 5.67409C1.85742 4.94895 1.75797 4.38399 1.80185 3.85106C1.8311 3.51033 1.96273 3.22785 2.20553 2.98614L3.20302 1.99309C3.34636 1.85913 3.49847 1.78632 3.64766 1.78632C3.83195 1.78632 3.98113 1.89698 4.07474 1.99017C4.07766 1.99309 4.08059 1.996 4.08351 1.99891C4.26195 2.1649 4.43161 2.33672 4.61005 2.52019C4.70073 2.61338 4.79434 2.70657 4.88795 2.80267L5.68653 3.5977C5.99661 3.90639 5.99661 4.19179 5.68653 4.50048C5.6017 4.58493 5.5198 4.66938 5.43496 4.75093C5.18925 5.00137 4.95523 5.23435 4.70073 5.4615C4.69488 5.46732 4.68903 5.47024 4.68611 5.47606C4.43454 5.72651 4.48134 5.97113 4.534 6.13713C4.53692 6.14586 4.53985 6.1546 4.54277 6.16334C4.75046 6.66423 5.04298 7.13601 5.48762 7.69806L5.49054 7.70097C6.2979 8.69111 7.14914 9.46284 8.08814 10.054C8.20807 10.1297 8.33093 10.1909 8.44794 10.2491C8.55324 10.3016 8.6527 10.3511 8.73753 10.4035C8.74923 10.4093 8.76094 10.418 8.77264 10.4239C8.87209 10.4734 8.9657 10.4967 9.06223 10.4967C9.30503 10.4967 9.45714 10.3452 9.50687 10.2957L10.5073 9.29976C10.6067 9.20075 10.7647 9.08135 10.949 9.08135C11.1304 9.08135 11.2795 9.19492 11.3702 9.29393C11.3732 9.29685 11.3732 9.29685 11.3761 9.29976L12.9879 10.9044C13.2892 11.2014 13.2892 11.5072 12.9908 11.8159Z" fill="#D2334D" stroke="#D2334D" stroke-width="0.3"/>
</svg>
