<svg width="80" height="12" viewBox="0 0 80 12" fill="none" xmlns="http://www.w3.org/2000/svg">
<g clip-path="url(#clip0_157_1148)">
<path d="M11.9687 4.60314C11.8902 4.36015 11.6747 4.18757 11.4197 4.16459L7.95614 3.8501L6.58657 0.64448C6.48558 0.40955 6.25559 0.257477 6.00006 0.257477C5.74453 0.257477 5.51455 0.40955 5.41356 0.645029L4.04399 3.8501L0.579909 4.16459C0.325385 4.18812 0.110414 4.36015 0.0314019 4.60314C-0.0476102 4.84613 0.0253592 5.11264 0.2179 5.28065L2.83592 7.57666L2.06393 10.9773C2.00744 11.2273 2.10448 11.4858 2.31195 11.6358C2.42346 11.7163 2.55393 11.7573 2.68549 11.7573C2.79893 11.7573 2.91145 11.7268 3.01244 11.6663L6.00006 9.88074L8.98659 11.6663C9.20513 11.7978 9.48062 11.7858 9.68763 11.6358C9.89518 11.4853 9.99214 11.2268 9.93565 10.9773L9.16366 7.57666L11.7817 5.2811C11.9742 5.11264 12.0477 4.84658 11.9687 4.60314Z" fill="#FFC107"/>
</g>
<g clip-path="url(#clip1_157_1148)">
<path d="M45.9687 4.60314C45.8902 4.36015 45.6747 4.18757 45.4197 4.16459L41.9561 3.8501L40.5866 0.64448C40.4856 0.40955 40.2556 0.257477 40.0001 0.257477C39.7445 0.257477 39.5145 0.40955 39.4136 0.645029L38.044 3.8501L34.5799 4.16459C34.3254 4.18812 34.1104 4.36015 34.0314 4.60314C33.9524 4.84613 34.0254 5.11264 34.2179 5.28065L36.8359 7.57666L36.0639 10.9773C36.0074 11.2273 36.1045 11.4858 36.3119 11.6358C36.4235 11.7163 36.5539 11.7573 36.6855 11.7573C36.7989 11.7573 36.9115 11.7268 37.0124 11.6663L40.0001 9.88074L42.9866 11.6663C43.2051 11.7978 43.4806 11.7858 43.6876 11.6358C43.8952 11.4853 43.9921 11.2268 43.9357 10.9773L43.1637 7.57666L45.7817 5.2811C45.9742 5.11264 46.0477 4.84658 45.9687 4.60314Z" fill="#FFC107"/>
</g>
<g clip-path="url(#clip2_157_1148)">
<path d="M28.9687 4.60314C28.8902 4.36015 28.6747 4.18757 28.4197 4.16459L24.9561 3.8501L23.5866 0.64448C23.4856 0.40955 23.2556 0.257477 23.0001 0.257477C22.7445 0.257477 22.5145 0.40955 22.4136 0.645029L21.044 3.8501L17.5799 4.16459C17.3254 4.18812 17.1104 4.36015 17.0314 4.60314C16.9524 4.84613 17.0254 5.11264 17.2179 5.28065L19.8359 7.57666L19.0639 10.9773C19.0074 11.2273 19.1045 11.4858 19.3119 11.6358C19.4235 11.7163 19.5539 11.7573 19.6855 11.7573C19.7989 11.7573 19.9115 11.7268 20.0124 11.6663L23.0001 9.88074L25.9866 11.6663C26.2051 11.7978 26.4806 11.7858 26.6876 11.6358C26.8952 11.4853 26.9921 11.2268 26.9357 10.9773L26.1637 7.57666L28.7817 5.2811C28.9742 5.11264 29.0477 4.84658 28.9687 4.60314Z" fill="#FFC107"/>
</g>
<g clip-path="url(#clip3_157_1148)">
<path d="M62.9687 4.60314C62.8902 4.36015 62.6747 4.18757 62.4197 4.16459L58.9561 3.8501L57.5866 0.64448C57.4856 0.40955 57.2556 0.257477 57.0001 0.257477C56.7445 0.257477 56.5145 0.40955 56.4136 0.645029L55.044 3.8501L51.5799 4.16459C51.3254 4.18812 51.1104 4.36015 51.0314 4.60314C50.9524 4.84613 51.0254 5.11264 51.2179 5.28065L53.8359 7.57666L53.0639 10.9773C53.0074 11.2273 53.1045 11.4858 53.3119 11.6358C53.4235 11.7163 53.5539 11.7573 53.6855 11.7573C53.7989 11.7573 53.9115 11.7268 54.0124 11.6663L57.0001 9.88074L59.9866 11.6663C60.2051 11.7978 60.4806 11.7858 60.6876 11.6358C60.8952 11.4853 60.9921 11.2268 60.9357 10.9773L60.1637 7.57666L62.7817 5.2811C62.9742 5.11264 63.0477 4.84658 62.9687 4.60314Z" fill="#FFC107"/>
</g>
<g clip-path="url(#clip4_157_1148)">
<path d="M79.6357 4.7108L79.6358 4.71119C79.6716 4.82135 79.6385 4.94134 79.5512 5.01769L79.5509 5.01794L76.9329 7.3135L76.7762 7.45091L76.8223 7.65415L77.5943 11.0546C77.6199 11.1678 77.5761 11.2843 77.4822 11.3524L77.4822 11.3524C77.3885 11.4203 77.2649 11.4253 77.167 11.3664L77.1662 11.3659L74.1797 9.58034L74.0001 9.47297L73.8205 9.58031L70.8329 11.3659L70.8327 11.366C70.7859 11.394 70.7355 11.4073 70.6855 11.4073C70.6272 11.4073 70.5685 11.3893 70.517 11.3521C70.4238 11.2847 70.3795 11.1685 70.4053 11.0544L71.1772 7.65415L71.2234 7.45093L71.0667 7.31352L68.4487 5.01751L68.448 5.01693C68.3617 4.94159 68.3284 4.82166 68.3642 4.71137C68.4001 4.60124 68.4969 4.52383 68.6119 4.51312C68.612 4.51311 68.6121 4.51311 68.6121 4.5131L72.0756 4.19866L72.2837 4.17977L72.3658 3.98763L73.7352 0.782976C73.7352 0.782948 73.7353 0.782919 73.7353 0.78289C73.7814 0.675507 73.8852 0.607477 74.0001 0.607477C74.115 0.607477 74.2189 0.675594 74.2649 0.782465C74.2649 0.782543 74.265 0.782621 74.265 0.782699L75.6343 3.98761L75.7164 4.17977L75.9245 4.19866L79.388 4.51316L79.3883 4.51318C79.5033 4.52355 79.6002 4.60115 79.6357 4.7108Z" stroke="#FFC107" stroke-width="0.7"/>
</g>
<defs>
<clipPath id="clip0_157_1148">
<rect width="12" height="12" fill="white"/>
</clipPath>
<clipPath id="clip1_157_1148">
<rect width="12" height="12" fill="white" transform="translate(34)"/>
</clipPath>
<clipPath id="clip2_157_1148">
<rect width="12" height="12" fill="white" transform="translate(17)"/>
</clipPath>
<clipPath id="clip3_157_1148">
<rect width="12" height="12" fill="white" transform="translate(51)"/>
</clipPath>
<clipPath id="clip4_157_1148">
<rect width="12" height="12" fill="white" transform="translate(68)"/>
</clipPath>
</defs>
</svg>
